<svg width="152" height="205" viewBox="0 0 152 205" fill="none" xmlns="http://www.w3.org/2000/svg">
<path d="M60 30C60 46.5685 46.5685 60 30 60C13.4315 60 0 46.5685 0 30C0 13.4315 13.4315 0 30 0C46.5685 0 60 13.4315 60 30ZM8.27589 30C8.27589 41.9979 18.0021 51.7241 30 51.7241C41.9979 51.7241 51.7241 41.9979 51.7241 30C51.7241 18.0021 41.9979 8.27589 30 8.27589C18.0021 8.27589 8.27589 18.0021 8.27589 30Z" fill="#36B3A8"/>
<path fill-rule="evenodd" clip-rule="evenodd" d="M71.7623 36.9431C70.0985 35.6725 67.7199 35.9916 66.4495 37.6552C65.1791 39.319 65.498 41.6977 67.1617 42.9682L95.2463 64.4123C93.1704 68.4916 92 73.1091 92 77.9999C92 94.5685 105.431 108 122 108C138.569 108 152 94.5685 152 77.9999C152 61.4313 138.569 47.9999 122 47.9999C113.049 47.9999 105.014 51.9196 99.5178 58.1359L71.7623 36.9431ZM122 99.7241C110.002 99.7241 100.276 89.9977 100.276 77.9999C100.276 66.0021 110.002 56.2758 122 56.2758C133.998 56.2758 143.724 66.0021 143.724 77.9999C143.724 89.9977 133.998 99.7241 122 99.7241Z" fill="#36B3A8"/>
<path fill-rule="evenodd" clip-rule="evenodd" d="M109.305 117.139C110.395 115.352 109.83 113.019 108.043 111.929C106.255 110.839 103.923 111.404 102.833 113.191L84.4328 143.358C80.1593 141.718 75.445 141.036 70.5808 141.546C54.1025 143.272 42.1442 158.031 43.8711 174.509C45.5981 190.987 60.3563 202.946 76.8346 201.219C93.3129 199.492 105.271 184.734 103.544 168.255C102.611 159.354 97.8756 151.771 91.1201 146.952L109.305 117.139ZM52.1019 173.646C50.8514 161.714 59.5108 151.027 71.4434 149.776C83.3759 148.526 94.0629 157.185 95.3135 169.118C96.564 181.05 87.9046 191.737 75.972 192.988C64.0395 194.238 53.3525 185.579 52.1019 173.646Z" fill="#36B3A8"/>
</svg>
