<svg width="157" height="58" viewBox="0 0 157 58" fill="none" xmlns="http://www.w3.org/2000/svg">
<path fill-rule="evenodd" clip-rule="evenodd" d="M6 0H0V25H6V10.2179L17.3875 25.3121L22.1464 21.7218L6 0.319608V0Z" fill="#36B3A8"/>
<path fill-rule="evenodd" clip-rule="evenodd" d="M140 32H134V57H140V42.2179L151.388 57.3121L156.146 53.7218L140 32.3196V32Z" fill="#36B3A8"/>
<path fill-rule="evenodd" clip-rule="evenodd" d="M108 32H102V57H108V42.2179L119.388 57.3121L124.146 53.7218L108 32.3196V32Z" fill="#36B3A8"/>
<rect x="17" width="6" height="10" rx="1" fill="white"/>
<rect x="119" y="32" width="6" height="10" rx="1" fill="white"/>
<rect x="150" y="32" width="6" height="10" rx="1" fill="white"/>
<rect x="112" y="12" width="6" height="10" rx="1" transform="rotate(90 112 12)" fill="white"/>
<path d="M93 44C93 51.1797 87.1797 57 80 57C72.8203 57 67 51.1797 67 44C67 36.8203 72.8203 31 80 31C87.1797 31 93 36.8203 93 44ZM73.4441 44C73.4441 47.6207 76.3793 50.5559 80 50.5559C83.6207 50.5559 86.5559 47.6207 86.5559 44C86.5559 40.3793 83.6207 37.4441 80 37.4441C76.3793 37.4441 73.4441 40.3793 73.4441 44Z" fill="#36B3A8"/>
<path d="M58.3221 37.6117C56.9353 35.1539 54.7864 33.2141 52.1999 32.0853C49.6134 30.9565 46.7299 30.7 43.9848 31.3545C41.2396 32.0091 38.7821 33.5391 36.9832 35.7136C35.1844 37.888 34.142 40.5888 34.0135 43.4079C33.885 46.2271 34.6773 49.0115 36.2708 51.3406C37.8643 53.6697 40.1725 55.417 42.8466 56.3187C45.5208 57.2203 48.4157 57.2272 51.0942 56.3385C53.7727 55.4497 56.0892 53.7135 57.6938 51.392L52.3929 47.7278C51.5837 48.8985 50.4155 49.7741 49.0647 50.2223C47.714 50.6705 46.254 50.667 44.9055 50.2123C43.5569 49.7576 42.3929 48.8765 41.5893 47.7019C40.7856 46.5273 40.3861 45.1231 40.4509 43.7014C40.5157 42.2797 41.0414 40.9177 41.9485 39.8211C42.8557 38.7246 44.095 37.953 45.4794 37.6229C46.8638 37.2928 48.318 37.4221 49.6223 37.9914C50.9267 38.5606 52.0104 39.5389 52.7097 40.7784L58.3221 37.6117Z" fill="#36B3A8"/>
<path d="M58 13C58 20.1797 52.1797 26 45 26C37.8203 26 32 20.1797 32 13C32 5.8203 37.8203 0 45 0C52.1797 0 58 5.8203 58 13ZM38.4441 13C38.4441 16.6207 41.3793 19.5559 45 19.5559C48.6207 19.5559 51.5559 16.6207 51.5559 13C51.5559 9.37927 48.6207 6.44408 45 6.44408C41.3793 6.44408 38.4441 9.37927 38.4441 13Z" fill="#36B3A8"/>
<path fill-rule="evenodd" clip-rule="evenodd" d="M67 0H73V0.256981L73.6435 3.02494e-05L80.2361 16.5099L87.4318 0L88 0.247634V0H94V26H88V11.2107L83.5836 21.3438L83.555 21.3314C83.5421 21.574 83.4837 21.8208 83.3732 22.0616L82.0482 24.9494C81.34 26.4929 79.1518 26.5072 78.4236 24.973L77.0612 22.1027C76.9568 21.8827 76.8963 21.6571 76.8747 21.4338L76.8262 21.4532L73 11.8714V26H67V0Z" fill="#36B3A8"/>
</svg>
