<svg width="240" height="27" viewBox="0 0 240 27" fill="none" xmlns="http://www.w3.org/2000/svg">
<path fill-rule="evenodd" clip-rule="evenodd" d="M6 0H0V25H6V10.2179L17.3875 25.3121L22.1464 21.7218L6 0.319608V0Z" fill="#36B3A8"/>
<path fill-rule="evenodd" clip-rule="evenodd" d="M223 1H217V26H223V11.2179L234.388 26.3121L239.146 22.7218L223 1.31961V1Z" fill="#36B3A8"/>
<path fill-rule="evenodd" clip-rule="evenodd" d="M192 1H186V26H192V11.2179L203.388 26.3121L208.146 22.7218L192 1.31961V1Z" fill="#36B3A8"/>
<rect x="17" width="6" height="10" rx="1" fill="white"/>
<rect x="203" y="1" width="6" height="10" rx="1" fill="white"/>
<rect x="233" y="1" width="6" height="10" rx="1" fill="white"/>
<rect x="110" y="12" width="6" height="10" rx="1" transform="rotate(90 110 12)" fill="white"/>
<path d="M178 13C178 20.1797 172.18 26 165 26C157.82 26 152 20.1797 152 13C152 5.8203 157.82 0 165 0C172.18 0 178 5.8203 178 13ZM158.444 13C158.444 16.6207 161.379 19.5559 165 19.5559C168.621 19.5559 171.556 16.6207 171.556 13C171.556 9.37927 168.621 6.44408 165 6.44408C161.379 6.44408 158.444 9.37927 158.444 13Z" fill="#36B3A8"/>
<path d="M142.322 7.6117C140.935 5.15387 138.786 3.21407 136.2 2.08526C133.613 0.956454 130.73 0.699959 127.985 1.35451C125.24 2.00907 122.782 3.53913 120.983 5.71358C119.184 7.88804 118.142 10.5888 118.013 13.4079C117.885 16.2271 118.677 19.0115 120.271 21.3406C121.864 23.6697 124.172 25.417 126.847 26.3187C129.521 27.2203 132.416 27.2272 135.094 26.3385C137.773 25.4497 140.089 23.7135 141.694 21.392L136.393 17.7278C135.584 18.8985 134.415 19.7741 133.065 20.2223C131.714 20.6705 130.254 20.667 128.905 20.2123C127.557 19.7576 126.393 18.8765 125.589 17.7019C124.786 16.5273 124.386 15.1231 124.451 13.7014C124.516 12.2797 125.041 10.9177 125.949 9.82115C126.856 8.72457 128.095 7.95296 129.479 7.62287C130.864 7.29277 132.318 7.42212 133.622 7.99138C134.927 8.56064 136.01 9.53889 136.71 10.7784L142.322 7.6117Z" fill="#36B3A8"/>
<path d="M57 13C57 20.1797 51.1797 26 44 26C36.8203 26 31 20.1797 31 13C31 5.8203 36.8203 0 44 0C51.1797 0 57 5.8203 57 13ZM37.4441 13C37.4441 16.6207 40.3793 19.5559 44 19.5559C47.6207 19.5559 50.5559 16.6207 50.5559 13C50.5559 9.37927 47.6207 6.44408 44 6.44408C40.3793 6.44408 37.4441 9.37927 37.4441 13Z" fill="#36B3A8"/>
<path fill-rule="evenodd" clip-rule="evenodd" d="M65 0H71V0.25708L71.6435 0L78.2361 16.5098L85.4318 0L86 0.247559V0H92V26H86V11.2107L81.5836 21.3438L81.5551 21.3313C81.5421 21.574 81.4837 21.8208 81.3732 22.0615L80.0482 24.9495C79.34 26.4929 77.1519 26.5071 76.4236 24.9729L75.0612 22.1028C74.9568 21.8828 74.8963 21.6572 74.8747 21.4338L74.8262 21.4531L71 11.8713V26H65V0Z" fill="#36B3A8"/>
</svg>
